# xmcd CD database file
#
# Track frame offsets:
#	150
#	11477
#	28238
#	42720
#	57024
#	72634
#	90389
#	101669
#	114430
#	130909
#	145616
#	159714
#	176610
#	191237
#
# Disc length: 2817 seconds
#
# Revision: 0
# Processed by: cddbd v1.5.2PL0 Copyright (c) Steve Scherf et al.
# Submitted via: CDex 1.70beta2
#
DISCID=c60aff0e
DTITLE=Campfire - Still Burning
DYEAR=1995
DGENRE=Country
TTITLE0=Diggy Liggy Lo
TTITLE1=Heartaches By The Number
TTITLE2=Thank God For The Radio
TTITLE3=Much Too Young
TTITLE4=Folsom Prison Blues
TTITLE5=Blue Eyes Crying In The Rain
TTITLE6=Yugo Goes To Nashville
TTITLE7=Dance, Dance, Dance
TTITLE8=I Sang Dixie
TTITLE9=Forever And Ever, Amen
TTITLE10=Thank God I'm A Countryboy
TTITLE11=We Never Touch At All
TTITLE12=Summertime Blues
TTITLE13=The Last Cowboy Song
EXTD=YEAR: 1995
EXTT0=
EXTT1=
EXTT2=
EXTT3=
EXTT4=
EXTT5=
EXTT6=
EXTT7=
EXTT8=
EXTT9=
EXTT10=
EXTT11=
EXTT12=
EXTT13=
PLAYORDER=
